# xmcd
#
# Track frame offsets: 
#        150
#        18642
#        41674
#        60996
#        92935
#        108136
#        119459
#        141707
#        184796
#        192857
#        206348
#
# Disc length: 3019 seconds
#
# Revision: 12
# Processed by: cddbd v1.5.2PL0 Copyright (c) Steve Scherf et al.
# Submitted via: ExactAudioCopy v1.0b3
#
DISCID=9c0bc90b
DTITLE=Joe Bonamassa - You And Me
DYEAR=2006
DGENRE=Rock
TTITLE0=High Water Everywhere
TTITLE1=Bridge To Better Days
TTITLE2=Asking Around For You
TTITLE3=So Many Roads
TTITLE4=I Don't Believe
TTITLE5=Tamp Em Up Solid
TTITLE6=Django
TTITLE7=Tea For One
TTITLE8=Palm Trees Helicopters And Gasoline
TTITLE9=Your Funeral And My Trial
TTITLE10=Torn Down
EXTD=
EXTT0=
EXTT1=
EXTT2=
EXTT3=
EXTT4=
EXTT5=
EXTT6=
EXTT7=
EXTT8=
EXTT9=
EXTT10=
PLAYORDER=
